<?xml version="1.0" encoding="UTF-8"?>
<svg id="Layer_1" data-name="Layer 1" xmlns="http://www.w3.org/2000/svg" viewBox="0 0 1401.1 293.58">
  <g id="Layer_1-2" data-name="Layer 1">
    <path d="M499.83,189.88c-20.35,0-36.84,16.48-36.85,36.83s16.48,36.84,36.83,36.85,36.84-16.48,36.85-36.83v-.02c-.03-20.33-16.5-36.8-36.83-36.83Z"/>
    <path d="M703.26,95.85c18.02,0,32.63-14.62,32.62-32.64,0-18.02-14.62-32.63-32.64-32.62-18.02,0-32.62,14.61-32.62,32.63.03,18.01,14.63,32.61,32.64,32.63Z"/>
    <path d="M508.83,33.44c-15.82,0-23.44,6.62-34.51,21.46l-106.27,143.22-2,2.68h64.4l1.9-2.68c11.33-16,65.31-92.18,65.63-92.62,1.94-4.21,6.22-6.84,10.85-6.68,4.81,0,8.91,2.68,11.34,7.55,0,0,71.83,153.54,75.5,161.41h46.86c-20.46-43.82-99.91-214.13-99.91-214.13-6.42-13.78-17.16-20.21-33.79-20.21Z"/>
    <path d="M81.59,184.68v26.67l171.81-.18h12.78v-26.5H81.59Z"/>
    <path d="M79.83,225.76c-7.52,0-12.58-5.17-12.58-12.85v-42.56h190.89v-40.34H67.21v-42.52c0-7.52,5.06-12.57,12.59-12.57l173.6.3h4.74v-40.27H74.41c-13.08,0-24,4.53-33.36,13.86s-13.93,20.31-13.93,33.62v135.92c0,13.14,4.57,24.1,13.94,33.52s20.27,14,33.35,14h183.73v-40.3h-4.74l-173.57.19Z"/>
    <path d="M320.65,212.77V34.95h-40.09v230.9h149v-40.29h-108.91v-12.79Z"/>
    <path d="M253.4,89.6l-171.81-.25v26.31h184.59v-26h-.86l-11.92-.06Z"/>
    <path d="M790.83,31.51c-3.62,7.7-73,155.5-75.71,161.23-1.67,4.79-5.93,7.73-11.42,7.73-4.79,0-8.88-2.68-11.34-7.55,0,0-71.81-153.54-75.5-161.41h-46.83c10.18,21.84,35,75.11,57.4,123.05,22.5,48.23,42.5,91.07,42.5,91.08,2.41,5.56,6.24,10.39,11.11,14,5.89,4.19,13.35,6.21,22.65,6.21,16.62,0,27.35-6.42,33.78-20.22l95.93-205c2-4.27,3.46-7.41,4.25-9.08h-46.82v-.04Z"/>
    <path d="M868.59,31.51h-8v230.84h38.24V31.51h-30.24Z"/>
    <path d="M1102.99,45.49c-9.41-9.41-20.36-14-33.49-14h-154.46v230.86h154.46c13.14,0,24.09-4.57,33.49-14,6.17-5.96,10.53-13.53,12.6-21.85.93-3.81,1.4-7.72,1.4-11.65v-40.81c.1-4.59-.6-9.16-2.08-13.5-1.09-3.22-3.02-6.08-5.59-8.31l-6.73-5.62,6.83-5.5c2.53-2.15,4.43-4.94,5.49-8.09,1.49-4.39,2.19-9.01,2.08-13.65v-40.38c0-3.62-.39-7.22-1.18-10.75-1.96-8.67-6.42-16.58-12.82-22.75ZM1076.83,209.45c0,7.69-5.17,12.86-12.87,12.86l-110.53-.21v-55.25h110.53c7.7,0,12.87,5.16,12.87,12.86v29.74ZM1076.83,114.13c0,7.52-5.17,12.57-12.87,12.57l-110.53-.14v-54.74h7.17l103.36-.32c7.7,0,12.87,5.05,12.87,12.58v30.05Z"/>
    <path d="M967.83,181.22v26.53l94.64.18v-26.75l-94.64.04Z"/>
    <path d="M967.83,86.16v26l94.64.12v-26.45l-94.64.33Z"/>
    <path d="M1401.09,5.21h-211.26c-20.45,0-38.23,7.36-52.83,21.87-2.37,2.36-4.58,4.87-6.64,7.51-2.27-2.99-4.74-5.82-7.4-8.47-14.62-14.64-32.45-22.06-53-22.06h-296.24l-14.64,31.17c-14.36-30.6-50.81-43.77-81.41-29.42-12.53,5.88-22.69,15.82-28.84,28.22l-14-30h-107.69l.05.1c-5.86-1.41-11.88-2.12-17.91-2.1-30.72,0-47.13,18.57-56.83,32.82l-103.79,138.74V7.51H74.83c-20.46,0-38.23,7.36-52.83,21.88S0,61.82,0,82.57v135.94c0,20.52,7.4,38.35,22,53s32.38,22.07,52.88,22.07h378.71v-22.73c25.35,25.8,66.82,26.15,92.61.8,6.25-6.14,11.2-13.48,14.57-21.57l20.71,43.16h115.7c2.28.2,4.58.33,6.94.33,27.05,0,47.92-12.84,58.78-36.16l70.5-150.69v183.4h236.53c20.53,0,38.36-7.42,53-22,2.33-2.34,4.52-4.81,6.56-7.4,2.27,3,4.74,5.85,7.4,8.51,14.6,14.67,32.4,22.1,52.9,22.1h211.31V5.21ZM703.26,13.95c27.27-.06,49.42,22.01,49.48,49.28.06,27.27-22.01,49.42-49.28,49.48-27.27.06-49.42-22.01-49.48-49.28,0-4.77.67-9.51,2.02-14.08,6.17-20.97,25.4-35.37,47.26-35.4ZM499.83,280.2c-29.43.11-53.37-23.67-53.48-53.1-.02-4.84.63-9.66,1.91-14.33,1.2-4.48,2.99-8.77,5.32-12.78,5.59-9.64,14.03-17.3,24.17-21.93,26.89-12.18,58.56-.25,70.74,26.64,12.18,26.89.25,58.56-26.64,70.74-6.92,3.13-14.42,4.76-22.02,4.76ZM665.1,282.2h-78.55l-1.94-4.14-19.72-42.21c-9.61-20.5-21.28-45.5-31.61-67.57l-24.73-52.83-35.2,49.68-23.37,33-9.26,13.06h3.18v69H74.41c-16.87,0-31.51-6.12-43.53-18.19-11.77-11.45-18.33-27.23-18.13-43.65V82.43c-.04-34.1,27.56-61.79,61.66-61.86h260.62v190.61h5.42c2.2-3,5.53-7.45,9.7-13.06l112.68-151.77c11.14-14.91,22.29-27.25,46-27.25,11.18,0,20.85,2.57,28.81,7.55,7.94,5.08,14.2,12.38,18,21l109.26,234.06.2.49ZM1387.46,87.35h-7.21s-163.88-.28-183.72-.3v26.3h190.93v69h-190.93v26.7l190.93-.22v69.07h-198.11c-16.86,0-31.51-6.13-43.52-18.2-3.3-3.32-6.23-6.97-8.75-10.91-3.59-5.6-6.19-11.78-7.7-18.26-1.56,6.17-4.13,12.04-7.6,17.37-2.49,3.85-5.38,7.42-8.62,10.66-11.44,11.8-27.23,18.38-43.66,18.18h-223.33V47.21l-12.77,27.31-82.89,177.2c-8.83,18.92-24.58,28.5-46.82,28.5-4.29.01-8.58-.41-12.79-1.26-15.48-3.19-27.11-12.43-34-27.24l-109.46-234.6h78.56l1.93,4.15,15,32,28,59.87c14.47,30.92,28.12,60.12,32.77,70,1.41-3,16.44-35,32.94-70.16,9.58-20.43,19.66-41.89,27.85-59.34,10-21.3,17.19-36.6,17.19-36.6h287.82c16.9,0,31.59,6.13,43.66,18.2,3.53,3.54,6.64,7.48,9.27,11.73,3.34,5.36,5.78,11.23,7.23,17.38,1.59-6.43,4.27-12.54,7.93-18.06,2.41-3.58,5.17-6.91,8.24-9.94,11.42-11.71,27.15-18.21,43.5-18h198.11l.02,69Z"/>
    <path d="M1155.99,46.51c-5.64,5.46-9.78,12.3-12,19.83-1.28,4.48-1.91,9.13-1.88,13.79v135.93c-.01,4.36.56,8.7,1.7,12.9,2.18,7.83,6.4,14.95,12.24,20.61,9.36,9.41,20.26,14,33.34,14h183.73v-40.31c-34,.05-178.34.2-178.35.2-7.52,0-12.57-5.16-12.57-12.85v-42.61h190.92v-40.29h-190.96v-42.52c0-7.51,5.05-12.56,12.58-12.56l178.34.3v-40.28h-183.73c-13.08,0-24,4.53-33.36,13.86Z"/>
    <path d="M1127.7,153.91v-14.26c-1.04,2.52-2.39,4.91-4,7.11,1.61,2.22,2.95,4.62,4,7.15Z"/>
  </g>
</svg>